<svg width="607" height="315" xmlns="http://www.w3.org/2000/svg" xmlns:xlink="http://www.w3.org/1999/xlink" overflow="hidden"><defs><clipPath id="clip0"><rect x="628" y="298" width="607" height="315"/></clipPath></defs><g clip-path="url(#clip0)" transform="translate(-628 -298)"><rect x="629.5" y="299.5" width="605" height="313" stroke="#D9D9D9" stroke-width="1.33333" stroke-miterlimit="8" fill="none"/><path d="M656 384.167C656 373.029 665.029 364 676.167 364L870.833 364C881.971 364 891 373.029 891 384.167L891 464.833C891 475.971 881.971 485 870.833 485L676.167 485C665.029 485 656 475.971 656 464.833Z" fill="#F2F2F2" fill-rule="evenodd"/><rect x="700.5" y="400.5" width="48" height="45" stroke="#2F528F" stroke-width="1.33333" stroke-miterlimit="8" fill="#4472C4"/><text fill="#FFFFFF" font-family="Yu Gothic,Yu Gothic_MSFontService,sans-serif" font-weight="400" font-size="11" transform="translate(710.016 426)">item1</text><rect x="794.5" y="400.5" width="48" height="45" stroke="#2F528F" stroke-width="1.33333" stroke-miterlimit="8" fill="#4472C4"/><text fill="#FFFFFF" font-family="Yu Gothic,Yu Gothic_MSFontService,sans-serif" font-weight="400" font-size="11" transform="translate(804.238 426)">item2</text><path d="M748.5 423.5 794.722 423.5" stroke="#000000" stroke-width="0.666667" stroke-miterlimit="8" fill="none" fill-rule="evenodd"/><text font-family="Yu Gothic,Yu Gothic_MSFontService,sans-serif" font-weight="400" font-size="11" transform="translate(764.302 420)">R2<tspan font-size="11" x="-59.7302" y="52">predecessor</tspan><tspan font-size="11" x="20.7482" y="-40">successor</tspan></text><path d="M0.313049-0.114505 13.0341 34.664 12.408 34.893-0.313049 0.114505ZM18.982 32.4884C20.2468 35.9462 18.469 39.7747 15.0112 41.0395 11.5533 42.3042 7.72486 40.5264 6.46007 37.0686 5.19528 33.6107 6.9731 29.7823 10.4309 28.5175 13.8888 27.2527 17.7172 29.0305 18.982 32.4884Z" fill="#ED7D31" transform="matrix(1 0 0 -1 735.5 458.279)"/><path d="M0.302886-0.139182 16.2842 34.6392 15.6784 34.9176-0.302886 0.139182ZM22.039 31.9947C23.5764 35.3403 22.1105 39.2987 18.7649 40.8361 15.4194 42.3734 11.461 40.9076 9.9236 37.562 8.38625 34.2164 9.8521 30.258 13.1977 28.7207 16.5433 27.1833 20.5017 28.6492 22.039 31.9947Z" fill="#ED7D31" transform="matrix(-1 0 0 1 810.481 388.5)"/><path d="M900.5 418.75 901.406 418.75 901.406 433.25 900.5 433.25ZM902.313 418.75 904.125 418.75 904.125 433.25 902.313 433.25ZM905.031 418.75 944 418.75 944 411.5 958.5 426 944 440.5 944 433.25 905.031 433.25Z" stroke="#2F528F" stroke-width="1.33333" stroke-miterlimit="8" fill="#F2F2F2" fill-rule="evenodd"/><path d="M967 380.167C967 369.029 976.029 360 987.167 360L1181.83 360C1192.97 360 1202 369.029 1202 380.167L1202 460.833C1202 471.971 1192.97 481 1181.83 481L987.167 481C976.029 481 967 471.971 967 460.833Z" fill="#F2F2F2" fill-rule="evenodd"/><rect x="994.5" y="395.5" width="47.9999" height="45" stroke="#2F528F" stroke-width="1.33333" stroke-miterlimit="8" fill="#4472C4"/><text fill="#FFFFFF" font-family="Yu Gothic,Yu Gothic_MSFontService,sans-serif" font-weight="400" font-size="11" transform="translate(1003.9 421)">item1</text><rect x="1133.5" y="395.5" width="48" height="45" stroke="#2F528F" stroke-width="1.33333" stroke-miterlimit="8" fill="#4472C4"/><text fill="#FFFFFF" font-family="Yu Gothic,Yu Gothic_MSFontService,sans-serif" font-weight="400" font-size="11" transform="translate(1142.82 421)">item2<tspan fill="#000000" font-weight="700" font-size="21" x="-444.443" y="113">Unr</tspan><tspan fill="#000000" font-weight="700" font-size="21" x="-406.443" y="113">elate</tspan><tspan fill="#000000" font-style="oblique" font-size="21" x="-348.443" y="113">item1</tspan><tspan fill="#000000" font-weight="700" font-size="21" x="-287.11" y="113">from</tspan><tspan fill="#000000" font-style="oblique" font-size="21" x="-232.443" y="113">item2</tspan><tspan fill="#000000" font-weight="700" font-size="21" x="-171.11" y="113">across</tspan><tspan fill="#000000" font-size="21" x="-96.9435" y="113">R2.’</tspan><tspan fill="#000000" font-size="21" x="-59.7767" y="113">predecessor</tspan><tspan fill="#000000" font-size="21" x="60.7233" y="113">’</tspan></text><path d="M788.373 536.263 855.373 536.263 855.373 537.263 788.373 537.263Z" fill-rule="evenodd"/><path d="M1083.37 536.263 1203.37 536.263 1203.37 537.263 1083.37 537.263Z" fill-rule="evenodd"/><text font-family="Yu Gothic,Yu Gothic_MSFontService,sans-serif" font-weight="400" font-size="19" transform="translate(687.484 585)">※<tspan font-size="19" x="24" y="0">item2 </tspan>から見て<tspan font-size="19" x="157.5" y="0">item1 </tspan>の<tspan font-size="19" x="229.667" y="0">意味で</tspan>関連<tspan font-size="19" x="323" y="0">を切る</tspan><tspan font-size="16" x="105.28" y="-260">item1 </tspan><tspan font-size="16" x="151.28" y="-260">と</tspan><tspan font-size="16" x="171.78" y="-260">item2</tspan><tspan font-size="16" x="217.78" y="-260">の前後関係</tspan><tspan font-size="16" x="297.78" y="-260">を解消する</tspan></text></g></svg>