<svg width="607" height="247" xmlns="http://www.w3.org/2000/svg" xmlns:xlink="http://www.w3.org/1999/xlink" overflow="hidden"><defs><clipPath id="clip0"><rect x="628" y="649" width="607" height="247"/></clipPath></defs><g clip-path="url(#clip0)" transform="translate(-628 -649)"><rect x="629.5" y="651.5" width="605" height="243" stroke="#D9D9D9" stroke-width="1.33333" stroke-miterlimit="8" fill="none"/><path d="M648 689.167C648 678.029 657.029 669 668.167 669L862.833 669C873.971 669 883 678.029 883 689.167L883 769.833C883 780.971 873.971 790 862.833 790L668.167 790C657.029 790 648 780.971 648 769.833Z" fill="#F2F2F2" fill-rule="evenodd"/><rect x="692.5" y="705.5" width="48" height="46" stroke="#2F528F" stroke-width="1.33333" stroke-miterlimit="8" fill="#4472C4"/><text fill="#FFFFFF" font-family="Yu Gothic,Yu Gothic_MSFontService,sans-serif" font-weight="400" font-size="11" transform="translate(704.961 732)">prev</text><rect x="786.5" y="705.5" width="48" height="46" stroke="#2F528F" stroke-width="1.33333" stroke-miterlimit="8" fill="#4472C4"/><text fill="#FFFFFF" font-family="Yu Gothic,Yu Gothic_MSFontService,sans-serif" font-weight="400" font-size="11" transform="translate(799.183 732)">next</text><path d="M740.5 728.5 786.722 728.5" stroke="#000000" stroke-width="0.666667" stroke-miterlimit="8" fill="none" fill-rule="evenodd"/><text font-family="Yu Gothic,Yu Gothic_MSFontService,sans-serif" font-weight="400" font-size="11" transform="translate(755.914 726)">R2<tspan font-size="11" x="-59.7302" y="52">predecessor</tspan><tspan font-size="11" x="20.7482" y="-40">successor</tspan></text><path d="M0.313049-0.114505 13.0341 34.664 12.408 34.893-0.313049 0.114505ZM18.982 32.4884C20.2468 35.9462 18.469 39.7747 15.0112 41.0395 11.5533 42.3042 7.72486 40.5264 6.46007 37.0686 5.19528 33.6107 6.9731 29.7823 10.4309 28.5175 13.8888 27.2527 17.7172 29.0305 18.982 32.4884Z" fill="#ED7D31" transform="matrix(1 0 0 -1 727.5 763.279)"/><path d="M0.302886-0.139182 16.2842 34.6392 15.6784 34.9176-0.302886 0.139182ZM22.039 31.9947C23.5764 35.3403 22.1105 39.2987 18.7649 40.8361 15.4194 42.3734 11.461 40.9076 9.9236 37.562 8.38625 34.2164 9.8521 30.258 13.1977 28.7207 16.5433 27.1833 20.5017 28.6492 22.039 31.9947Z" fill="#ED7D31" transform="matrix(-1 0 0 1 802.481 694.5)"/><path d="M1.81802e-06-1.5 83.5321-1.4999 83.5321 1.5001-1.81802e-06 1.5ZM-9.09008e-06 7.5C-4.14214 7.49999-7.5 4.14213-7.5-9.09008e-06-7.49999-4.14214-4.14213-7.5 9.09008e-06-7.5 4.14214-7.49999 7.5-4.14213 7.5 9.09008e-06 7.49999 4.14214 4.14213 7.5-9.09008e-06 7.5ZM70.7605-8.81115 86.6207 0.000105349 70.7605 8.81132C70.0363 9.21364 69.1231 8.95272 68.7208 8.22855 68.3185 7.50437 68.5794 6.59117 69.3036 6.18885L82.8036-1.31114 82.8036 1.31134 69.3036-6.18868C68.5794-6.591 68.3185-7.50421 68.7208-8.22838 69.1231-8.95256 70.0363-9.21347 70.7605-8.81115Z" fill="#FF0000" transform="matrix(-1 0 0 1 811.122 740.5)"/><text font-family="Yu Gothic,Yu Gothic_MSFontService,sans-serif" font-weight="700" font-size="21" transform="translate(657.477 833)">Select one<tspan font-style="oblique" font-weight="400" font-size="21" x="115.833" y="0">prev</tspan><tspan font-size="21" x="164.5" y="0">related by</tspan><tspan font-style="oblique" font-weight="400" font-size="21" x="274.5" y="0">next</tspan><tspan font-size="21" x="316.667" y="0">-</tspan><tspan font-size="21" x="325.833" y="0">&gt;</tspan><tspan font-weight="400" font-size="21" x="341.667" y="0">I[R2.’successor’]</tspan><tspan font-weight="400" font-size="19" x="-4.80774" y="40">※</tspan><tspan font-weight="400" font-size="19" x="19.1923" y="40">next </tspan><tspan font-weight="400" font-size="19" x="61.5256" y="40">から見て</tspan><tspan font-weight="400" font-size="19" x="141.526" y="40">prev</tspan><tspan font-weight="400" font-size="19" x="184.192" y="40">の</tspan><tspan font-weight="400" font-size="19" x="202.859" y="40">意味で</tspan><tspan font-weight="400" font-size="19" x="264.192" y="40">R2</tspan><tspan font-weight="400" font-size="19" x="292.359" y="40">を辿る</tspan><tspan font-weight="400" font-size="16" x="261.819" y="-138">後ろ</tspan><tspan font-weight="400" font-size="16" x="293.819" y="-138">のアイテムから前のアイテムを取得</tspan></text></g></svg>