<svg width="607" height="303" xmlns="http://www.w3.org/2000/svg" xmlns:xlink="http://www.w3.org/1999/xlink" overflow="hidden"><defs><clipPath id="clip0"><rect x="628" y="-12" width="607" height="303"/></clipPath></defs><g clip-path="url(#clip0)" transform="translate(-628 12)"><rect x="629.5" y="-10.5001" width="605" height="301" stroke="#D9D9D9" stroke-width="1.33333" stroke-miterlimit="8" fill="none"/><path d="M967 64.167C967 53.0291 976.029 44 987.167 44L1181.83 44C1192.97 44 1202 53.0291 1202 64.167L1202 144.833C1202 155.971 1192.97 165 1181.83 165L987.167 165C976.029 165 967 155.971 967 144.833Z" fill="#F2F2F2" fill-rule="evenodd"/><path d="M656 66.167C656 55.0291 665.029 46 676.167 46L870.833 46C881.971 46 891 55.0291 891 66.167L891 146.833C891 157.971 881.971 167 870.833 167L676.167 167C665.029 167 656 157.971 656 146.833Z" fill="#F2F2F2" fill-rule="evenodd"/><rect x="683.5" y="80.5001" width="48" height="46" stroke="#2F528F" stroke-width="1.33333" stroke-miterlimit="8" fill="#4472C4"/><text fill="#FFFFFF" font-family="Yu Gothic,Yu Gothic_MSFontService,sans-serif" font-weight="400" font-size="11" transform="translate(693.049 107)">item1</text><rect x="822.5" y="80.5001" width="48" height="46" stroke="#2F528F" stroke-width="1.33333" stroke-miterlimit="8" fill="#4472C4"/><text fill="#FFFFFF" font-family="Yu Gothic,Yu Gothic_MSFontService,sans-serif" font-weight="400" font-size="11" transform="translate(831.963 107)">item2</text><path d="M747.16 102.167 749.827 102.167 749.827 102.833 747.16 102.833ZM751.827 102.167 754.493 102.167 754.493 102.833 751.827 102.833ZM756.493 102.167 759.16 102.167 759.16 102.833 756.493 102.833ZM761.16 102.167 763.827 102.167 763.827 102.833 761.16 102.833ZM765.827 102.167 768.493 102.167 768.493 102.833 765.827 102.833ZM770.493 102.167 773.16 102.167 773.16 102.833 770.493 102.833ZM775.16 102.167 777.827 102.167 777.827 102.833 775.16 102.833ZM779.827 102.167 782.493 102.167 782.493 102.833 779.827 102.833ZM784.493 102.167 787.16 102.167 787.16 102.833 784.493 102.833ZM789.16 102.167 791.827 102.167 791.827 102.833 789.16 102.833ZM793.827 102.167 796.493 102.167 796.493 102.833 793.827 102.833ZM798.493 102.167 801.16 102.167 801.16 102.833 798.493 102.833ZM803.16 102.167 804.717 102.167 804.717 102.833 803.16 102.833ZM754.992 107.455 746.499 102.5 754.992 97.5455C755.151 97.4527 755.355 97.5064 755.448 97.6654 755.541 97.8245 755.487 98.0286 755.328 98.1213L747.328 102.788 747.328 102.212 755.328 106.879C755.487 106.972 755.541 107.176 755.448 107.335 755.355 107.494 755.151 107.547 754.992 107.455ZM796.885 97.5455 805.378 102.5 796.885 107.455C796.726 107.547 796.522 107.494 796.429 107.335 796.336 107.176 796.39 106.972 796.549 106.879L804.549 102.212 804.549 102.788 796.549 98.1214C796.39 98.0286 796.336 97.8245 796.429 97.6655 796.522 97.5065 796.726 97.4528 796.885 97.5455Z"/><text font-family="Yu Gothic,Yu Gothic_MSFontService,sans-serif" font-weight="400" font-size="11" transform="translate(770.411 81)">R2<tspan font-size="11" x="-94.0848" y="60">predecessor</tspan><tspan font-size="11" x="50.3832" y="60">successor</tspan></text><rect x="1011.5" y="80.5001" width="47.9999" height="46" stroke="#2F528F" stroke-width="1.33333" stroke-miterlimit="8" fill="#4472C4"/><text fill="#FFFFFF" font-family="Yu Gothic,Yu Gothic_MSFontService,sans-serif" font-weight="400" font-size="11" transform="translate(1020.87 107)">item1</text><rect x="1105.5" y="80.5001" width="48" height="46" stroke="#2F528F" stroke-width="1.33333" stroke-miterlimit="8" fill="#4472C4"/><text fill="#FFFFFF" font-family="Yu Gothic,Yu Gothic_MSFontService,sans-serif" font-weight="400" font-size="11" transform="translate(1115.09 107)">item2</text><path d="M1059.5 103.5 1105.72 103.5" stroke="#000000" stroke-width="0.666667" stroke-miterlimit="8" fill="none" fill-rule="evenodd"/><text font-family="Yu Gothic,Yu Gothic_MSFontService,sans-serif" font-weight="400" font-size="11" transform="translate(1075.16 100)">R2<tspan font-size="11" x="-59.7302" y="53">predecessor</tspan><tspan font-size="11" x="20.7482" y="-40">successor</tspan></text><path d="M0.313049-0.114505 13.0341 34.664 12.408 34.893-0.313049 0.114505ZM18.982 32.4884C20.2468 35.9462 18.469 39.7747 15.0112 41.0395 11.5533 42.3042 7.72486 40.5264 6.46007 37.0686 5.19528 33.6107 6.9731 29.7823 10.4309 28.5175 13.8888 27.2527 17.7172 29.0305 18.982 32.4884Z" fill="#ED7D31" transform="matrix(1 0 0 -1 1046.5 138.279)"/><path d="M0.302886-0.139182 16.2842 34.6392 15.6784 34.9176-0.302886 0.139182ZM22.039 31.9947C23.5764 35.3403 22.1105 39.2987 18.7649 40.8361 15.4194 42.3734 11.461 40.9076 9.9236 37.562 8.38625 34.2164 9.8521 30.258 13.1977 28.7207 16.5433 27.1833 20.5017 28.6492 22.039 31.9947Z" fill="#ED7D31" transform="matrix(-1 0 0 1 1121.48 68.5001)"/><path d="M900.5 98.75 901.406 98.75 901.406 113.25 900.5 113.25ZM902.313 98.75 904.125 98.75 904.125 113.25 902.313 113.25ZM905.031 98.75 943 98.75 943 91.5001 957.5 106 943 120.5 943 113.25 905.031 113.25Z" stroke="#2F528F" stroke-width="1.33333" stroke-miterlimit="8" fill="#F2F2F2" fill-rule="evenodd"/><text font-family="Yu Gothic,Yu Gothic_MSFontService,sans-serif" font-weight="700" font-size="21" transform="translate(698.836 219)">Relate<tspan font-style="oblique" font-weight="400" font-size="21" x="73" y="0">item1</tspan><tspan font-size="21" x="134.333" y="0">to</tspan><tspan font-style="oblique" font-weight="400" font-size="21" x="161.333" y="0">item2</tspan><tspan font-size="21" x="222.667" y="0">across</tspan><tspan font-weight="400" font-size="21" x="296.833" y="0">R2.’</tspan><tspan font-weight="400" font-size="21" x="334" y="0">predecessor</tspan><tspan font-weight="400" font-size="21" x="454.5" y="0">’</tspan></text><path d="M771.836 221.265 826.836 221.265 826.836 222.265 771.836 222.265Z" fill-rule="evenodd"/><path d="M1032.84 221.265 1093.34 221.265 1153.84 221.265 1153.84 222.265 1093.34 222.265 1032.84 222.265Z" fill-rule="evenodd"/><text font-family="Yu Gothic,Yu Gothic_MSFontService,sans-serif" font-weight="400" font-size="19" transform="translate(687.946 270)">※<tspan font-size="19" x="24" y="0">item2 </tspan>から見て<tspan font-size="19" x="157.5" y="0">item1 </tspan>の<tspan font-size="19" x="229.667" y="0">意味で関連付ける</tspan><tspan font-size="16" x="105.05" y="-250">item1 </tspan><tspan font-size="16" x="151.05" y="-250">を前に</tspan><tspan font-size="16" x="203.55" y="-250">item2</tspan><tspan font-size="16" x="249.55" y="-250">を後に関連付ける</tspan></text></g></svg>