<svg width="608" height="246" xmlns="http://www.w3.org/2000/svg" xmlns:xlink="http://www.w3.org/1999/xlink" overflow="hidden"><defs><clipPath id="clip0"><rect x="-2" y="526" width="608" height="246"/></clipPath></defs><g clip-path="url(#clip0)" transform="translate(2 -526)"><rect x="0.500053" y="527.5" width="604" height="244" stroke="#D9D9D9" stroke-width="1.33333" stroke-miterlimit="8" fill="none"/><path d="M18 566.167C18 555.029 27.0291 546 38.1671 546L233.833 546C244.971 546 254 555.029 254 566.167L254 646.833C254 657.971 244.971 667 233.833 667L38.1671 667C27.0291 667 18 657.971 18 646.833Z" fill="#F2F2F2" fill-rule="evenodd"/><rect x="62.5001" y="582.5" width="48" height="46" stroke="#2F528F" stroke-width="1.33333" stroke-miterlimit="8" fill="#4472C4"/><text fill="#FFFFFF" font-family="Yu Gothic,Yu Gothic_MSFontService,sans-serif" font-weight="400" font-size="11" transform="translate(75.7009 609)">prev</text><rect x="157.5" y="582.5" width="48" height="46" stroke="#2F528F" stroke-width="1.33333" stroke-miterlimit="8" fill="#4472C4"/><text fill="#FFFFFF" font-family="Yu Gothic,Yu Gothic_MSFontService,sans-serif" font-weight="400" font-size="11" transform="translate(169.923 609)">next</text><path d="M110.5 605.5 156.722 605.5" stroke="#000000" stroke-width="0.666667" stroke-miterlimit="8" fill="none" fill-rule="evenodd"/><text font-family="Yu Gothic,Yu Gothic_MSFontService,sans-serif" font-weight="400" font-size="11" transform="translate(126.654 602)">R2<tspan font-size="11" x="-59.7302" y="53">predecessor</tspan><tspan font-size="11" x="20.7482" y="-40">successor</tspan></text><path d="M0.313049-0.114505 13.0341 34.664 12.408 34.893-0.313049 0.114505ZM18.982 32.4884C20.2468 35.9462 18.469 39.7747 15.0112 41.0395 11.5533 42.3042 7.72486 40.5264 6.46007 37.0686 5.19528 33.6107 6.9731 29.7823 10.4309 28.5175 13.8888 27.2527 17.7172 29.0305 18.982 32.4884Z" fill="#ED7D31" transform="matrix(1 0 0 -1 98.5001 640.279)"/><path d="M0.302886-0.139182 16.2842 34.6392 15.6784 34.9176-0.302886 0.139182ZM22.039 31.9947C23.5764 35.3403 22.1105 39.2987 18.7649 40.8361 15.4194 42.3734 11.461 40.9076 9.9236 37.562 8.38625 34.2164 9.8521 30.258 13.1977 28.7207 16.5433 27.1833 20.5017 28.6492 22.039 31.9947Z" fill="#ED7D31" transform="matrix(-1 0 0 1 173.481 570.5)"/><path d="M94.5001 616 178.032 616 178.032 619 94.5001 619ZM94.5 625C90.3579 625 87 621.642 87.0001 617.5 87.0001 613.358 90.3579 610 94.5001 610 98.6422 610 102 613.358 102 617.5 102 621.642 98.6422 625 94.5 625ZM165.261 608.689 181.121 617.5 165.261 626.311C164.536 626.714 163.623 626.453 163.221 625.729 162.819 625.004 163.079 624.091 163.804 623.689L177.304 616.189 177.304 618.811 163.804 611.311C163.079 610.909 162.819 609.996 163.221 609.272 163.623 608.547 164.536 608.287 165.261 608.689Z" fill="#FF0000"/><text font-family="Yu Gothic,Yu Gothic_MSFontService,sans-serif" font-weight="700" font-size="21" transform="translate(28.2167 710)">Select one<tspan font-style="oblique" font-weight="400" font-size="21" x="115.833" y="0">next</tspan><tspan font-size="21" x="164.167" y="0">related by</tspan><tspan font-style="oblique" font-weight="400" font-size="21" x="274.167" y="0">p</tspan><tspan font-style="oblique" font-weight="400" font-size="21" x="286.5" y="0">rev</tspan><tspan font-size="21" x="322.833" y="0">-</tspan>&gt;<tspan font-weight="400" font-size="21" x="347.833" y="0">I[R2.’predecessor’]</tspan><tspan font-weight="400" font-size="19" x="-4.80777" y="39">※</tspan><tspan font-weight="400" font-size="19" x="19.1922" y="39">next </tspan><tspan font-weight="400" font-size="19" x="61.5256" y="39">から見て</tspan><tspan font-weight="400" font-size="19" x="141.526" y="39">prev</tspan><tspan font-weight="400" font-size="19" x="184.192" y="39">の</tspan><tspan font-weight="400" font-size="19" x="202.859" y="39">意味で</tspan><tspan font-weight="400" font-size="19" x="264.192" y="39">R2</tspan><tspan font-weight="400" font-size="19" x="292.359" y="39">を辿る</tspan><tspan font-weight="400" font-size="16" x="262.539" y="-139">前のアイテムから後ろのアイテムを取得</tspan></text></g></svg>